<?xml version="1.0" encoding="utf-8"?>
<!-- Generator: Adobe Illustrator 15.0.0, SVG Export Plug-In . SVG Version: 6.00 Build 0)  -->
<!DOCTYPE svg PUBLIC "-//W3C//DTD SVG 1.1//EN" "http://www.w3.org/Graphics/SVG/1.1/DTD/svg11.dtd">
<svg version="1.1" id="Layer_1" xmlns="http://www.w3.org/2000/svg" xmlns:xlink="http://www.w3.org/1999/xlink" x="0px" y="0px"
	 width="23.17px" height="23.24px" viewBox="0 0 23.17 23.24" enable-background="new 0 0 23.17 23.24" xml:space="preserve">
<rect x="-11.104" y="-24.154" fill="#F68326" width="57.382" height="57.538"/>
<path fill="#FFFFFF" d="M-5.843,28.791c0-0.255,0.103-0.666,0.722-1.6C-5.379,25.39-2.491,3.61-1.458,3.199
	c-0.929,0.104-4.799-0.155-4.799-0.155S-6.639-14.98-6.435-19.421c6.092,1.704,45.618-0.192,47.952-0.735
	c0.063,2.812,0.111,10.042,0.111,10.042l1.497,0.361L41.887,2.63l-0.359-0.05l-4.853,27.09L6.746,29.877V30.6H2.36l0.103,0.98
	C2.463,31.58-5.843,29.044-5.843,28.791z"/>
<path fill="#009668" d="M26.346-6.803c0,0,1.511-0.155,3.097,0.696c3.213,1.781,12.578,3.522,12.578,3.522l-0.503-17.57
	l-15.984,1.006L26.346-6.803z"/>
<path fill="#BE86B5" d="M-6.435-8.429H7.769l0.464-4.103l4.876,0.078v-6.501c0,0-19.196-0.155-19.544-0.465
	C-6.628-16.711-6.435-8.429-6.435-8.429z"/>
<path fill="#FAAF3C" d="M9.433,18.508c0,0,4.877-6.773,6.618-9.443c-1.586-1.587-8.204-5.922-8.204-5.922l-6.619,9.443"/>
<path fill="#F37022" d="M15.742,8.91c0,0,5.572,0,6.617-0.62c-0.618,3.6-1.161,10.604-1.161,10.604l-6.772,0.116L15.742,8.91z"/>
<path fill="#6EBE65" d="M40.395,18.546c-0.232,2.052-2.245,13.159-2.245,13.159s-5.418-0.929-10.062-1.857
	c-0.116-7.083-2.477-14.01-2.477-14.01S40.008,18.197,40.395,18.546z"/>
<path fill="#D7363C" d="M27.778,19.708c0,0,9.288-4.955,12.616-6.696C35.054,9.645,29.79,3.568,29.558,2.795
	c-1.083,0.425-8.591,4.374-8.591,4.374L27.778,19.708z"/>
<path d="M21.354-2.237c0.271,0.116,5.921-8.243,5.921-8.243s-0.658-0.31-1.393-0.542c-0.349-0.697-8.321-6.425-9.909-8.321
	c-1.354,1.703-6.307,8.94-6.307,8.94L21.354-2.237z"/>
<path fill="#00996D" d="M8.079,3.955c2.515-0.464,3.677-5.495,3.638-5.843c-0.039-0.349,8.204-1.936,10.256-1.858
	c0.658,2.555,2.863,11.882,2.863,11.882s-0.192,0.115-0.696,0.348c-5.03-1.162-13.313-2.206-15.596-1.935
	C8.156,4.227,8.388,5.581,8.079,3.955z"/>
<path fill="#AD3D8F" d="M-4.911-6.608L9.951-11.2c0,0,1.083,3.664,2.632,8.463C10.415,2.785,4.252,7.574,0.457,8.977
	C-1.132,4.149-4.911-6.608-4.911-6.608z"/>
<polyline fill="#F37022" points="35.363,-6.301 39.736,-3.011 33.119,5.387 29.326,2.911 "/>
<polygon fill="#0767B3" points="-4.074,18.005 25.844,18.817 25.495,30.506 -4.577,29.848 "/>
</svg>
