<?xml version="1.0" encoding="utf-8"?>
<!-- Generator: Adobe Illustrator 15.0.0, SVG Export Plug-In . SVG Version: 6.00 Build 0)  -->
<!DOCTYPE svg PUBLIC "-//W3C//DTD SVG 1.1//EN" "http://www.w3.org/Graphics/SVG/1.1/DTD/svg11.dtd">
<svg version="1.1" id="Layer_1" xmlns="http://www.w3.org/2000/svg" xmlns:xlink="http://www.w3.org/1999/xlink" x="0px" y="0px"
	 width="32px" height="32.002px" viewBox="0 0 32 32.002" enable-background="new 0 0 32 32.002" xml:space="preserve">
<g id="Layer_1_1_">
</g>
<g id="undo">
	<g>
		<path fill="#4E4E50" d="M0,13.088c0,3.425,1.367,6.722,3.844,9.207l3.016,3.008l2.828-2.827l-3.016-3.015
			C4.949,17.733,4,15.445,4,13.088c0-2.522,0.949-4.811,2.672-6.534c3.445-3.453,9.453-3.453,12.898-0.004l5.453,5.537H20v3.92h12V4
			h-4v5.32l-5.598-5.601c-4.953-4.961-13.602-4.957-18.559,0C1.367,6.199,0,9.496,0,13.088z"/>
		<polygon fill="#4E4E50" points="10.723,29.166 13.551,26.338 16.379,29.166 13.551,32.002 		"/>
	</g>
</g>
</svg>
